<?xml version="1.0" encoding="UTF-8"?>
<svg xmlns="http://www.w3.org/2000/svg" viewBox="0 0 834.11 753.9">
  <defs>
    <style>
      .cls-1, .cls-2, .cls-3, .cls-4, .cls-5, .cls-6 {
        stroke: #231f20;
        stroke-miterlimit: 10;
      }

      .cls-1, .cls-3, .cls-4, .cls-5, .cls-6 {
        fill: none;
      }

      .cls-2, .cls-7 {
        fill: #231f20;
      }

      .cls-3 {
        stroke-width: .6px;
      }

      .cls-4 {
        stroke-width: .75px;
      }

      .cls-7, .cls-8 {
        stroke-width: 0px;
      }

      .cls-5 {
        stroke-width: .5px;
      }

      .cls-8 {
        fill: #fff;
      }

      .cls-6 {
        stroke-width: .25px;
      }
    </style>
  </defs>
  <g id="Layer_1" data-name="Layer 1">
    <polyline class="cls-1" points="206.14 47.5 206.14 34.48 204.34 33.38 55.44 33.38 54.58 34.4 54.58 47.16"/>
    <line class="cls-1" x1="54.08" y1="47.16" x2="206.41" y2="47.16"/>
    <line class="cls-1" x1="54.7" y1="47.16" x2="63.98" y2="52.66"/>
    <line class="cls-1" x1="206.11" y1="47.24" x2="199.73" y2="52.74"/>
    <line class="cls-1" x1="127.19" y1="47.27" x2="127.58" y2="52.73"/>
    <line class="cls-1" x1="136.23" y1="47.5" x2="135.98" y2="52.48"/>
    <path class="cls-1" d="M702.55,391.19c.27-.92.69-1.49.97-1.81.69-.77,1.51-1.1,3.06-1.74.56-.23.9-.36,1.39-.49,1-.25,1.85-.25,2.43-.21l15.69.35,15.16.16h8.68l11.91-.27,7.95-.27,7.44-.27c.71.02,1.5.09,2.35.23.96.16,2.31.39,3.89,1.13,1,.47,2.08,1,2.91,2.17,0,0,.24.35.43.74,1.94,3.96.59,137.64.6,137.97,0,0,0,.2-.01.46-.02.21-.02.31-.06.42-.08.27-.25.44-.36.56-.13.13-.23.23-.41.28-.11.03-.21.02-.28.01h-82.13c-.37.01-.71,0-1.01,0-.08,0-.21,0-.37-.03-.17-.03-.32-.06-.44-.14-.23-.15-.28-.42-.36-.77-.03-.16-.07-.4-.06-.69l.61-137.84Z"/>
    <path class="cls-1" d="M703.37,525.97h1.62s29.04,0,29.04,0v-4.68s-.05-.92.9-.92,17.7,0,17.7,0c0,0,.68-.02.7.73.04,1.58.04,4.88.04,4.88h32.09s.73,0,.73,0"/>
    <path class="cls-1" d="M704.35,392.91c.68-.73,1.48-1.04,3-1.64.55-.22.88-.34,1.36-.46.98-.23,1.82-.23,2.38-.2l15.38.33,14.86.16h8.51l11.68-.25,7.79-.25,7.29-.25c.69.02,1.47.08,2.3.22.94.15,2.27.37,3.81,1.07.98.44,2.04.94,2.85,2.05"/>
    <polyline class="cls-1" points="753.38 525.97 753.37 529.38 734.04 529.42 734.04 525.97"/>
    <circle class="cls-4" cx="757.6" cy="527.64" r=".7"/>
    <circle class="cls-4" cx="772.79" cy="527.64" r=".7"/>
    <circle class="cls-4" cx="714.69" cy="527.64" r=".7"/>
    <circle class="cls-4" cx="729.88" cy="527.64" r=".7"/>
    <circle class="cls-4" cx="743.78" cy="390.35" r=".7"/>
    <circle class="cls-4" cx="772.07" cy="389.65" r=".7"/>
    <circle class="cls-4" cx="715.68" cy="389.94" r=".7"/>
    <rect class="cls-3" x="737.95" y="521.75" width="3.36" height="2.33"/>
    <polyline class="cls-3" points="742.12 524.08 745.5 524.08 745.5 522.96 742.45 522.96 742.43 521.75 745.81 521.75"/>
    <polyline class="cls-3" points="750.28 524.08 746.9 524.08 746.9 521.75 750.28 521.75"/>
    <line class="cls-3" x1="740.32" y1="523.5" x2="740.32" y2="524.83"/>
    <ellipse class="cls-4" cx="743.71" cy="525.81" rx="1.48" ry=".55"/>
    <polyline class="cls-6" points="738.47 527.17 738.47 527.99 738.47 528.45"/>
    <path class="cls-6" d="M739.27,528.28l-.72-.32s-.05-.07-.01-.1l.61-.52"/>
    <line class="cls-6" x1="739.9" y1="528.2" x2="740.16" y2="528.2"/>
    <polyline class="cls-6" points="740.54 528.2 741.39 528.2 741.39 527.79 740.7 527.79 740.69 527.35 741.55 527.35"/>
    <polyline class="cls-6" points="742.29 528.2 743.14 528.2 743.14 527.79 742.45 527.79 742.44 527.35 743.3 527.35"/>
    <polyline class="cls-6" points="744.76 528.2 743.82 528.2 743.82 527.81 743.82 527.34 744.62 527.34 744.62 527.75 743.87 527.75"/>
    <path class="cls-6" d="M745.28,527.28v1.07-1.07Z"/>
    <line class="cls-6" x1="745.36" y1="527.78" x2="746.19" y2="528.23"/>
    <polyline class="cls-6" points="745.13 527.31 746.01 527.31 746.01 527.69 745.31 527.69"/>
    <line class="cls-6" x1="746.69" y1="527.18" x2="746.69" y2="528.34"/>
    <polyline class="cls-6" points="748.25 528.2 747.3 528.2 747.3 527.81 747.3 527.34 748.11 527.34 748.1 527.75 747.36 527.75"/>
    <polyline class="cls-6" points="748.67 528.2 749.51 528.2 749.51 527.79 748.82 527.79 748.82 527.35 749.67 527.35"/>
    <path class="cls-1" d="M521.03,360.53l36.54-.06,43.85.04,37.75.02v168.02s-.12,2.28-.51,2.88-2.16,1.52-3.88,1.63c-2.15.13-105.2,1.33-107.17.65l-.12-.02c-.68.02-4.75.13-5.25-.25-.91-.68-1.27-.82-1.2-3.75.07-2.93,0-10.46,0-10.46v-158.7Z"/>
    <path class="cls-1" d="M551.24,529.48c1.14-1.84,2.31-3.28,3.49-4.57,2.88-3.12,5.25-5.18,6.9-6.48.87-.69,1.71-1.31,2.8-1.94,2.96-1.72,5.91-2.47,9.69-2.94,5.64-.71,9.52-1.2,14.72-.14,2.72.56,12.55,2.71,18.88,11.27,1.15,1.56,2.43,3.61,2.93,4.64"/>
    <path class="cls-1" d="M525.35,529.02c36.85,1.33,73.34,1.21,109.49-.31.1,0,.45-.02.55-.02"/>
    <path class="cls-4" d="M584.76,522.47l.04-4.3c0-.06-.06-.09-.11-.05l-2.75,2.17h-.25s-.59,0-.59,0h-.23s-2.71-2.33-2.71-2.33c-.04-.03-.09,0-.09.04v4.49"/>
    <path class="cls-4" d="M576.91,522.47v-6.68c0-.06.06-.09.11-.06l4.38,2.75,4.31-2.7c.08-.05.18,0,.18.1v6.6"/>
    <line class="cls-4" x1="576.5" y1="523.45" x2="578.49" y2="523.45"/>
    <line class="cls-4" x1="580.48" y1="523.45" x2="582.41" y2="523.45"/>
    <line class="cls-4" x1="584.33" y1="523.45" x2="586.28" y2="523.45"/>
    <line class="cls-2" x1="525.35" y1="363.7" x2="635.39" y2="363.7"/>
    <path class="cls-7" d="M576.67,525.27q.35-.02.42.31c.02.11.05.22.11.34.03-.15.07-.3.1-.45.02-.16.09-.24.26-.2.04,0,.08,0,.13,0v.96h-.18v-.68s-.02,0-.03,0c-.05.19-.09.38-.15.56-.02.05-.07.11-.13.13-.1.03-.12-.04-.14-.13-.04-.18-.09-.35-.16-.53v.65h-.22v-.95Z"/>
    <path class="cls-7" d="M580.85,525.28q.3-.04.42.21c.05.11.11.21.17.32,0,0,.01.01.03.03v-.56h.23v.94c-.17.06-.27,0-.34-.17-.08-.19-.19-.37-.32-.6v.77h-.2v-.95Z"/>
    <path class="cls-7" d="M579.34,525.8c.07.14.13.27.2.41-.18.07-.25-.01-.31-.16-.04-.1-.05-.28-.25-.21v.37h-.23v-.96c.16,0,.33-.02.49,0,.12.02.24.06.27.22.03.15-.04.24-.16.31ZM578.98,525.7c.12-.04.22-.07.31-.11,0,0,0-.08,0-.09-.09-.04-.19-.07-.31-.1v.3Z"/>
    <path class="cls-7" d="M584.1,525.26c.27,0,.55-.05.72.2.13.18.12.39,0,.58-.17.28-.46.18-.72.19v-.97ZM584.3,526.06c.13,0,.26.04.33-.11.07-.14.09-.3-.01-.41-.07-.07-.2-.09-.32-.14v.67Z"/>
    <path class="cls-7" d="M585.39,525.76c0-.34.17-.51.51-.5.18,0,.27.13.34.28.11.25-.01.61-.24.69-.33.12-.63-.11-.6-.47ZM585.6,525.74l-.04.03c.07.11.12.25.22.32.13.08.24-.04.29-.28.03-.16-.09-.39-.21-.41-.13-.02-.25.14-.25.34Z"/>
    <path class="cls-7" d="M583.92,525.27c0,.25,0,.48,0,.71,0,.17-.13.22-.27.26-.23.07-.45-.07-.49-.31,0-.05,0-.1,0-.15,0-.17,0-.34,0-.52h.23c0,.2,0,.4,0,.6,0,.12.03.23.17.23.13,0,.16-.11.16-.23,0-.19,0-.39,0-.59h.2Z"/>
    <path class="cls-7" d="M578.68,526.22c-.22.02-.2.07-.29-.22-.07,0-.14-.01-.21,0-.05.01-.11.04-.13.08-.07.15-.07.15-.26.13.1-.32.19-.63.29-.95.06,0,.11,0,.16,0,.11-.01.15.03.18.14.08.27.17.54.26.82ZM578.34,525.82c-.04-.12-.07-.24-.12-.39-.04.16-.07.27-.1.39h.22Z"/>
    <path class="cls-7" d="M583.1,526.21c-.14.04-.24.03-.26-.13,0-.03-.08-.07-.13-.08-.06-.01-.13,0-.21,0-.04.13-.06.3-.29.21.09-.3.17-.6.29-.9.02-.05.18-.05.29-.08.11.34.21.66.31.98ZM582.67,525.48s-.02,0-.03,0c-.03.11-.06.22-.1.34h.22c-.03-.12-.06-.23-.09-.34Z"/>
    <path class="cls-7" d="M584.36,527.03v.49c-.05,0-.1,0-.16.01v-.8c.34-.07.31.31.52.43v-.42c.06,0,.11,0,.17-.01v.84c-.09-.06-.16-.08-.21-.14-.1-.13-.19-.28-.29-.41-.01,0-.02,0-.03.01Z"/>
    <path class="cls-7" d="M580.38,526.74q.22-.02.52.43v-.43h.17v.78c-.19.04-.2-.12-.27-.22-.08-.1-.14-.21-.24-.31v.52h-.17v-.78Z"/>
    <path class="cls-7" d="M581.65,527.54v-.8c.22.01.45-.08.63.14.09.12.11.33.02.47-.16.23-.4.18-.65.2ZM581.82,527.42c.13-.06.26-.08.31-.15.05-.07.05-.23,0-.3-.05-.07-.19-.08-.31-.13v.58Z"/>
    <path class="cls-7" d="M579.1,527.12c0-.24.16-.43.37-.41.2.02.38.13.37.43,0,.25-.15.4-.38.4-.22,0-.36-.17-.36-.42ZM579.27,527.11c0,.19.07.29.2.29.12,0,.2-.11.2-.27,0-.15-.1-.29-.21-.29-.12,0-.19.1-.19.28Z"/>
    <path class="cls-7" d="M583.62,527.14c0,.24-.14.4-.36.4-.24,0-.38-.15-.38-.42,0-.24.15-.41.37-.42.22,0,.37.17.37.43ZM583.45,527.13s.03-.02.04-.02c-.05-.08-.09-.18-.16-.23-.04-.03-.16,0-.21.05-.09.07-.1.31-.02.4.05.05.14.08.2.07.13-.03.16-.14.15-.26Z"/>
    <path class="cls-7" d="M580.37,525.27v.15h-.25v.8h-.24v-.79h-.26c0-.06,0-.1-.01-.16h.76Z"/>
    <path class="cls-7" d="M585.25,526.23h-.21v-.96h.21v.96Z"/>
    <path class="cls-7" d="M578,527.54v-.79h.18v.62h.37c.04.11.04.18-.1.17-.14,0-.29,0-.45,0Z"/>
    <path class="cls-7" d="M580.66,526.23h-.18v-.96h.18v.96Z"/>
    <line class="cls-1" x1="519.68" y1="592.88" x2="642.02" y2="592.88"/>
    <path class="cls-1" d="M520.15,592.47v121.95c-.02.27,0,.65,0,1.09,0,0-.29,1.83,1.04,2.59,1.2.69,2.91.35,4.83.43h109.93c1.88-.08,3.54.26,4.72-.43,1.31-.77,1.02-2.59,1.02-2.59,0-.44.02-.82,0-1.09v-121.95"/>
    <polyline class="cls-1" points="588.62 712.87 637.49 712.87 638.25 712.87"/>
    <line class="cls-1" x1="523.63" y1="712.87" x2="577.41" y2="712.87"/>
    <rect class="cls-1" x="577.62" y="703.12" width="10.7" height="11.14"/>
    <path class="cls-5" d="M585.37,710.64l.03-3.07s-.05-.06-.08-.04l-1.97,1.55h-.18s-.42,0-.42,0h-.16s-1.93-1.67-1.93-1.67c-.03-.02-.07,0-.07.03v3.21"/>
    <path class="cls-5" d="M579.76,710.64v-4.77s.04-.06.08-.04l3.13,1.96,3.08-1.93c.05-.03.13,0,.13.07v4.72"/>
    <line class="cls-5" x1="579.46" y1="711.34" x2="580.88" y2="711.34"/>
    <line class="cls-5" x1="582.3" y1="711.34" x2="583.68" y2="711.34"/>
    <line class="cls-5" x1="585.05" y1="711.34" x2="586.45" y2="711.34"/>
    <line class="cls-1" x1="524.76" y1="597.77" x2="638.1" y2="597.77"/>
    <polygon class="cls-1" points="57.26 613.51 56.82 717.04 205.61 717.04 205.8 613.51 57.26 613.51"/>
    <line class="cls-1" x1="59.49" y1="616.69" x2="202.74" y2="616.38"/>
    <line class="cls-1" x1="59.49" y1="714.04" x2="202.74" y2="713.73"/>
    <g>
      <path class="cls-7" d="M189.79,708.92l.31-2.3h1.97s.09.05.08.1l-.23,2.21-.47-.02.24-1.87h-1.16s-.24,1.88-.24,1.88h-.49Z"/>
      <path class="cls-7" d="M192.73,708.93h1.95s.08-.03.08-.07l.29-2.08s-.03-.09-.08-.09h-1.94s-.08.03-.08.07l-.3,2.08s.03.09.08.09Z"/>
      <path class="cls-8" d="M193.47,707.14h.97s.08.04.08.09l-.21,1.22s-.04.06-.08.06h-.97s-.08-.04-.08-.09l.21-1.22s.04-.06.08-.06Z"/>
      <polygon class="cls-7" points="195.64 706.69 195.64 708.94 196.5 708.94 197.75 706.72 197.1 706.71 196.11 708.48 196.14 706.69 195.64 706.69"/>
      <path class="cls-7" d="M198.34,706.69l-.07.5h1.77l-.14.38h-1.52s-.08.03-.08.07l-.2,1.24c0,.05.03.1.08.1h2.02l.3-2.18s-.03-.09-.08-.09h-2.09Z"/>
      <polygon class="cls-8" points="198.77 708.04 198.66 708.47 199.72 708.47 199.84 708.04 198.77 708.04"/>
    </g>
    <polygon class="cls-1" points="57.6 508.15 57.15 611.69 205.95 611.69 206.13 508.15 57.6 508.15"/>
    <line class="cls-1" x1="59.83" y1="511.33" x2="203.08" y2="511.03"/>
    <line class="cls-1" x1="59.83" y1="608.68" x2="203.08" y2="608.37"/>
    <rect class="cls-1" x="287.25" y="184.5" width="152.32" height="237.99"/>
    <rect class="cls-1" x="287.25" y="479.89" width="152.32" height="237.99"/>
    <g>
      <path class="cls-7" d="M190.62,603.56l.31-2.3h1.97s.09.05.08.1l-.23,2.21-.47-.02.24-1.87h-1.16s-.24,1.88-.24,1.88h-.49Z"/>
      <path class="cls-7" d="M193.56,603.57h1.95s.08-.03.08-.07l.29-2.08s-.03-.09-.08-.09h-1.94s-.08.03-.08.07l-.3,2.08s.03.09.08.09Z"/>
      <path class="cls-8" d="M194.3,601.78h.97s.08.04.08.09l-.21,1.22s-.04.06-.08.06h-.97s-.08-.04-.08-.09l.21-1.22s.04-.06.08-.06Z"/>
      <polygon class="cls-7" points="196.47 601.33 196.47 603.58 197.32 603.58 198.58 601.36 197.92 601.36 196.94 603.12 196.97 601.33 196.47 601.33"/>
      <path class="cls-7" d="M199.16,601.33l-.07.5h1.77l-.14.38h-1.52s-.08.03-.08.07l-.2,1.24c0,.05.03.1.08.1h2.02l.3-2.18s-.03-.09-.08-.09h-2.09Z"/>
      <polygon class="cls-8" points="199.6 602.69 199.49 603.12 200.55 603.12 200.66 602.69 199.6 602.69"/>
    </g>
    <polyline class="cls-1" points="287.25 648.6 439.57 648.63 439.57 651.4 287.25 651.4"/>
    <line class="cls-1" x1="330.73" y1="717.98" x2="332.01" y2="651.4"/>
    <line class="cls-1" x1="336.14" y1="717.98" x2="334.86" y2="651.4"/>
    <line class="cls-1" x1="332.01" y1="648.6" x2="332.48" y2="590.65"/>
    <path class="cls-1" d="M334.3,590.65l.47,57.95"/>
    <line class="cls-1" x1="390.87" y1="718.54" x2="392.15" y2="651.4"/>
    <line class="cls-1" x1="396.28" y1="718.54" x2="394.99" y2="651.4"/>
    <line class="cls-1" x1="392.15" y1="648.6" x2="392.62" y2="590.37"/>
    <path class="cls-1" d="M394.53,590.37l.47,58.24"/>
    <polyline class="cls-1" points="287.25 341.31 439.57 341.35 439.57 344.59 287.25 344.59"/>
    <line class="cls-1" x1="360.71" y1="423.51" x2="361.99" y2="344.59"/>
    <line class="cls-1" x1="366.11" y1="423.51" x2="364.83" y2="344.59"/>
    <line class="cls-1" x1="361.9" y1="341.11" x2="362.37" y2="291.55"/>
    <path class="cls-1" d="M364.28,291.56l.47,49.56"/>
    <line class="cls-1" x1="287.25" y1="291.55" x2="439.57" y2="291.55"/>
    <line class="cls-1" x1="292.53" y1="288.47" x2="433.75" y2="288.47"/>
    <line class="cls-1" x1="287.19" y1="217.85" x2="439.51" y2="217.85"/>
    <circle class="cls-1" cx="363.41" cy="254.95" r="18.78"/>
    <circle class="cls-1" cx="363.48" cy="254.95" r="8.32"/>
    <line class="cls-1" x1="357.08" y1="259.92" x2="348.7" y2="267.27"/>
    <line class="cls-1" x1="378.46" y1="266.18" x2="370.16" y2="259.92"/>
    <line class="cls-1" x1="363.79" y1="246.69" x2="363.73" y2="236.18"/>
    <circle class="cls-4" cx="437.07" cy="288.47" r=".99"/>
    <circle class="cls-4" cx="437.25" cy="255.94" r=".99"/>
    <circle class="cls-4" cx="437.07" cy="220.45" r=".99"/>
    <circle class="cls-4" cx="289.56" cy="288.47" r=".99"/>
    <circle class="cls-4" cx="289.71" cy="255.94" r=".99"/>
    <rect class="cls-4" x="341.97" y="189.72" width="42.75" height="23.9"/>
    <ellipse class="cls-4" cx="363.66" cy="201.67" rx="15.32" ry="8.43"/>
    <circle class="cls-4" cx="344.63" cy="211.25" r=".99"/>
    <circle class="cls-4" cx="344.63" cy="192.25" r=".99"/>
    <circle class="cls-4" cx="382.19" cy="192.25" r=".99"/>
    <circle class="cls-4" cx="382.19" cy="211.25" r=".99"/>
    <line class="cls-1" x1="292.95" y1="220.94" x2="346.3" y2="247.22"/>
    <line class="cls-1" x1="381.2" y1="248.05" x2="433.76" y2="221.44"/>
    <polyline class="cls-1" points="380.53 262.68 433.26 288.11 433.75 222.33 433.77 220.94 292.95 220.94 293.02 288.19 347.25 263.59"/>
    <line class="cls-1" x1="287.25" y1="589.81" x2="439.57" y2="589.81"/>
    <circle class="cls-4" cx="386.66" cy="482.11" r=".99"/>
    <circle class="cls-4" cx="337.67" cy="482.11" r=".99"/>
    <circle class="cls-4" cx="437.3" cy="482.11" r=".99"/>
    <circle class="cls-4" cx="289.5" cy="482.11" r=".99"/>
    <circle class="cls-4" cx="289.71" cy="220.53" r=".99"/>
  </g>
  <g id="Layer_3" data-name="Layer 3">
    <g id="Layer_5" data-name="Layer 5">
      <g id="Layer_6" data-name="Layer 6">
        <path class="cls-1" d="M160.45,181.47v-66.39c0-.11.11-.75,0-.72-1.21.29-7.58.54-9.67.41"/>
        <path class="cls-1" d="M102.43,181.63l-1.48-66.34c0-.12-.12-1.14,0-1.12,3.48.51,8.92.42,8.92.42"/>
        <line class="cls-5" x1="126.71" y1="199.36" x2="135.98" y2="199.34"/>
        <line class="cls-5" x1="126.85" y1="214.94" x2="136.12" y2="214.92"/>
        <line class="cls-5" x1="126.71" y1="219.32" x2="135.98" y2="219.3"/>
        <line class="cls-5" x1="126.66" y1="234.57" x2="135.93" y2="234.55"/>
        <line class="cls-5" x1="126.75" y1="269.52" x2="136.03" y2="269.5"/>
        <line class="cls-5" x1="126.89" y1="285.66" x2="136.17" y2="285.64"/>
        <line class="cls-5" x1="126.75" y1="290.19" x2="136.03" y2="290.17"/>
        <line class="cls-5" x1="126.7" y1="305.99" x2="135.98" y2="305.97"/>
        <line class="cls-1" x1="126.77" y1="253.64" x2="126.61" y2="322.75"/>
        <line class="cls-1" x1="136.32" y1="253.42" x2="136.6" y2="322.93"/>
        <line class="cls-5" x1="126.63" y1="129.61" x2="135.91" y2="129.6"/>
        <line class="cls-5" x1="126.77" y1="145.19" x2="136.05" y2="145.18"/>
        <line class="cls-5" x1="126.63" y1="149.57" x2="135.91" y2="149.55"/>
        <line class="cls-5" x1="126.58" y1="164.82" x2="135.85" y2="164.81"/>
        <line class="cls-1" x1="126.47" y1="114.27" x2="126.67" y2="181.01"/>
        <line class="cls-1" x1="136.45" y1="115" x2="136.22" y2="181.18"/>
        <line class="cls-5" x1="126.79" y1="340.7" x2="136.07" y2="340.68"/>
        <line class="cls-5" x1="126.93" y1="356.4" x2="136.21" y2="356.38"/>
        <line class="cls-5" x1="126.79" y1="360.81" x2="136.07" y2="360.79"/>
        <line class="cls-5" x1="126.74" y1="376.18" x2="136.01" y2="376.16"/>
        <line class="cls-1" x1="126.8" y1="325.24" x2="126.65" y2="392.48"/>
        <line class="cls-1" x1="136.35" y1="325.04" x2="136.64" y2="392.66"/>
        <line class="cls-5" x1="126.58" y1="411.1" x2="135.85" y2="411.08"/>
        <line class="cls-5" x1="126.71" y1="425.92" x2="135.99" y2="425.9"/>
        <line class="cls-5" x1="126.58" y1="430.08" x2="135.85" y2="430.06"/>
        <line class="cls-5" x1="126.52" y1="444.59" x2="135.8" y2="444.57"/>
        <line class="cls-1" x1="126.59" y1="396.51" x2="126.43" y2="459.98"/>
        <line class="cls-1" x1="136.14" y1="396.32" x2="136.42" y2="460.14"/>
      </g>
      <path class="cls-1" d="M160.76,250.76v-66.55c0-.11.11-.75,0-.72-1.21.29-7.58.54-9.67.41"/>
      <path class="cls-1" d="M102.74,250.93l-1.48-66.5c0-.12-.12-1.14,0-1.12,3.48.51,8.92.42,8.92.42"/>
      <line class="cls-1" x1="126.72" y1="184.02" x2="126.57" y2="250.76"/>
      <line class="cls-1" x1="136.27" y1="183.82" x2="136.56" y2="250.93"/>
      <path class="cls-1" d="M161.28,322.08v-67.73c0-.11.11-.76,0-.74-1.21.29-7.58.55-9.67.42"/>
      <path class="cls-1" d="M103.26,322.24l-1.48-67.69c0-.12-.12-1.16,0-1.14,3.48.52,8.92.43,8.92.43"/>
      <path class="cls-1" d="M161.32,392.28v-66.33c0-.11.11-.75,0-.72-1.21.29-7.58.53-9.67.41"/>
      <path class="cls-1" d="M103.3,392.44l-1.48-66.29c0-.12-.12-1.14,0-1.12,3.48.51,8.92.42,8.92.42"/>
      <path class="cls-1" d="M160.45,460.91v-63.72c0-.11.11-.72,0-.69-1.21.27-7.58.51-9.67.39"/>
      <path class="cls-1" d="M102.43,461.07l-1.48-63.67c0-.11-.12-1.09,0-1.08,3.48.49,8.92.4,8.92.4"/>
    </g>
    <g id="Layer_4" data-name="Layer 4">
      <path class="cls-1" d="M160.02,112.95v-60.86c0-.11-.07-.52-.18-.49-1.21.29-7.41,1.31-9.49,1.19"/>
      <path class="cls-1" d="M101.89,112.88l-1.36-61.01c0-.12.08-.29.19-.26,3.83,1.08,8.67,1.23,8.67,1.23"/>
      <path class="cls-5" d="M126.56,66.69l10.18-.02-10.18.02Z"/>
      <line class="cls-5" x1="126.69" y1="80.56" x2="135.97" y2="80.54"/>
      <line class="cls-5" x1="126.56" y1="84.46" x2="135.83" y2="84.44"/>
      <line class="cls-5" x1="126.5" y1="98.04" x2="135.78" y2="98.03"/>
      <line class="cls-1" x1="125.63" y1="53.04" x2="127.35" y2="112.44"/>
      <line class="cls-1" x1="137.14" y1="52.85" x2="135.38" y2="112.6"/>
      <path class="cls-1" d="M102.41,460.52v.61c0,.11.06.52.17.49,1.21-.28,7.51-1.81,9.61-1.7"/>
      <path class="cls-1" d="M160.44,460.77v.67c.01.12-.07.31-.18.26-4.1-1.98-10.67-1.93-10.67-1.93"/>
      <path class="cls-1" d="M103.33,392.44v.61c0,.11.06.52.17.49,1.21-.28,7.55-1.05,9.65-.94"/>
      <path class="cls-1" d="M161.36,392.69v.67c.01.12-.07.29-.18.26-4.51-1.32-7.05-1.05-10.69-.9"/>
    </g>
  </g>
  <g id="Layer_2" data-name="Layer 2">
    <polyline class="cls-1" points="58.77 114.87 57.68 181.29 57.68 181.83 58.63 183.18 57.68 183.2 57.68 214.32 56.76 250.22 56.75 250.66 58.16 252.6 56.74 252.58 56 321.99 58.04 324.54 56.05 324.52 56.51 353.08 56.82 392.73 60.07 396.24 57.2 396.24 56.79 412.16 57.68 422.06 58.81 459.92"/>
    <line class="cls-1" x1="60.56" y1="52.84" x2="58.82" y2="112.71"/>
    <line class="cls-1" x1="203.04" y1="113.85" x2="202.36" y2="52.66"/>
    <polyline class="cls-1" points="202.05 459.85 203.26 396.74 200.57 396.73 203.33 393.12 204.55 326.07 202.05 326.04 204.6 323.57 204.63 254.2 203.05 254.18 204.63 252.18 204.63 217.86 204.06 213.36 203.92 191.96 204.26 186.24 204.14 183.81 202.85 183.81 204 182.28 203.09 117.71 203.05 114.5"/>
    <line class="cls-1" x1="58.35" y1="112.71" x2="203.05" y2="113.35"/>
    <line class="cls-1" x1="57.19" y1="181.47" x2="204.06" y2="181.98"/>
    <line class="cls-1" x1="56.41" y1="250.28" x2="204.98" y2="251.86"/>
    <line class="cls-1" x1="56.01" y1="321.67" x2="204.8" y2="323.26"/>
    <line class="cls-1" x1="160.82" y1="392.74" x2="203.34" y2="392.86"/>
    <line class="cls-1" x1="112.52" y1="392.6" x2="157.21" y2="392.73"/>
    <line class="cls-1" x1="56.45" y1="392.44" x2="103.84" y2="392.58"/>
    <line class="cls-1" x1="160.92" y1="459.73" x2="202.44" y2="459.57"/>
    <line class="cls-1" x1="111.68" y1="459.93" x2="149.78" y2="459.78"/>
    <line class="cls-1" x1="58.34" y1="460.14" x2="101.88" y2="459.97"/>
    <line class="cls-1" x1="60.07" y1="52.84" x2="100.94" y2="52.79"/>
    <line class="cls-1" x1="160.07" y1="52.82" x2="202.74" y2="52.76"/>
    <line class="cls-1" x1="108.78" y1="52.84" x2="151.17" y2="52.78"/>
    <line class="cls-1" x1="58.29" y1="114.36" x2="202.99" y2="115"/>
    <line class="cls-1" x1="58.79" y1="112.92" x2="59.87" y2="114.46"/>
    <line class="cls-1" x1="203.23" y1="113.45" x2="201.46" y2="114.9"/>
    <line class="cls-1" x1="57.19" y1="183.3" x2="204.06" y2="183.81"/>
    <line class="cls-1" x1="56.3" y1="252.62" x2="204.98" y2="254.2"/>
    <line class="cls-1" x1="56.01" y1="324.54" x2="204.8" y2="326.12"/>
    <line class="cls-1" x1="56.96" y1="396.32" x2="203.51" y2="396.74"/>
  </g>
</svg>